<?xml version="1.0" encoding="UTF-8" standalone="no"?>
<!-- Created with Inkscape (http://www.inkscape.org/) -->

<svg
   xmlns:dc="http://purl.org/dc/elements/1.1/"
   xmlns:cc="http://creativecommons.org/ns#"
   xmlns:rdf="http://www.w3.org/1999/02/22-rdf-syntax-ns#"
   xmlns:svg="http://www.w3.org/2000/svg"
   xmlns="http://www.w3.org/2000/svg"
   xmlns:xlink="http://www.w3.org/1999/xlink"
   xmlns:sodipodi="http://sodipodi.sourceforge.net/DTD/sodipodi-0.dtd"
   xmlns:inkscape="http://www.inkscape.org/namespaces/inkscape"
   width="1500"
   height="500"
   viewBox="0 0 396.87499 132.29167"
   version="1.1"
   id="svg8"
   inkscape:export-filename="C:\Users\joey1\OneDrive\Documents\GitHub\alluthus.github.io\assets\images\stibarc_records_black.png"
   inkscape:export-xdpi="96"
   inkscape:export-ydpi="96"
   sodipodi:docname="stibarc_records_black.svg"
   inkscape:version="0.92.4 (5da689c313, 2019-01-14)">
  <defs
     id="defs2">
    <path
       id="a3q3eguqXj"
       d="M275.51 18.97L285.11 19.95L294.59 21.3L303.94 23.01L313.17 25.09L322.25 27.52L331.19 30.3L339.97 33.42L348.59 36.87L357.04 40.63L365.31 44.72L373.4 49.11L381.29 53.8L388.99 58.79L396.47 64.05L403.74 69.6L410.79 75.41L417.6 81.49L424.18 87.82L430.51 94.4L436.59 101.21L442.4 108.26L447.95 115.53L453.21 123.01L458.2 130.71L462.89 138.6L467.28 146.69L471.37 154.96L475.13 163.41L478.58 172.03L481.7 180.81L484.48 189.75L486.91 198.83L488.99 208.06L490.7 217.41L492.05 226.89L493.03 236.49L493.62 246.19L493.82 256L493.62 265.81L493.03 275.51L492.05 285.11L490.7 294.59L488.99 303.94L486.91 313.17L484.48 322.25L481.7 331.19L478.58 339.97L475.13 348.59L471.37 357.04L467.28 365.31L462.89 373.4L458.2 381.29L453.21 388.99L447.95 396.47L442.4 403.74L436.59 410.79L430.51 417.6L424.18 424.18L417.6 430.51L410.79 436.59L403.74 442.4L396.47 447.95L388.99 453.21L381.29 458.2L373.4 462.89L365.31 467.28L357.04 471.37L348.59 475.13L339.97 478.58L331.19 481.7L322.25 484.48L313.17 486.91L303.94 488.99L294.59 490.7L285.11 492.05L275.51 493.03L265.81 493.62L256 493.82L246.19 493.62L236.49 493.03L226.89 492.05L217.41 490.7L208.06 488.99L198.83 486.91L189.75 484.48L180.81 481.7L172.03 478.58L163.41 475.13L154.96 471.37L146.69 467.28L138.6 462.89L130.71 458.2L123.01 453.21L115.53 447.95L108.26 442.4L101.21 436.59L94.4 430.51L87.82 424.18L81.49 417.6L75.41 410.79L69.6 403.74L64.05 396.47L58.79 388.99L53.8 381.29L49.11 373.4L44.72 365.31L40.63 357.04L36.87 348.59L33.42 339.97L30.3 331.19L27.52 322.25L25.09 313.17L23.01 303.94L21.3 294.59L19.95 285.11L18.97 275.51L18.38 265.81L18.18 256L18.38 246.19L18.97 236.49L19.95 226.89L21.3 217.41L23.01 208.06L25.09 198.83L27.52 189.75L30.3 180.81L33.42 172.03L36.87 163.41L40.63 154.96L44.72 146.69L49.11 138.6L53.8 130.71L58.79 123.01L64.05 115.53L69.6 108.26L75.41 101.21L81.49 94.4L87.82 87.82L94.4 81.49L101.21 75.41L108.26 69.6L115.53 64.05L123.01 58.79L130.71 53.8L138.6 49.11L146.69 44.72L154.96 40.63L163.41 36.87L172.03 33.42L180.81 30.3L189.75 27.52L198.83 25.09L208.06 23.01L217.41 21.3L226.89 19.95L236.49 18.97L246.19 18.38L256 18.18L265.81 18.38L275.51 18.97ZM247.22 149.34L242.91 149.78L238.64 150.38L234.43 151.16L230.28 152.09L226.2 153.19L222.18 154.44L218.23 155.84L214.35 157.39L210.54 159.09L206.82 160.93L203.18 162.91L199.63 165.02L196.17 167.26L192.8 169.63L189.53 172.13L186.36 174.75L183.29 177.48L180.33 180.33L177.48 183.29L174.75 186.36L172.13 189.53L169.63 192.8L167.26 196.17L165.02 199.63L162.91 203.18L160.93 206.82L159.09 210.54L157.39 214.35L155.84 218.23L154.44 222.18L153.19 226.2L152.09 230.28L151.16 234.43L150.38 238.64L149.78 242.91L149.34 247.22L149.07 251.59L148.98 256L149.07 260.41L149.34 264.78L149.78 269.09L150.38 273.36L151.16 277.57L152.09 281.72L153.19 285.8L154.44 289.82L155.84 293.77L157.39 297.65L159.09 301.46L160.93 305.18L162.91 308.82L165.02 312.37L167.26 315.83L169.63 319.2L172.13 322.47L174.75 325.64L177.48 328.71L180.33 331.67L183.29 334.52L186.36 337.25L189.53 339.87L192.8 342.37L196.17 344.74L199.63 346.98L203.18 349.09L206.82 351.07L210.54 352.91L214.35 354.61L218.23 356.16L222.18 357.56L226.2 358.81L230.28 359.91L234.43 360.84L238.64 361.62L242.91 362.22L247.22 362.66L251.59 362.93L256 363.02L260.41 362.93L264.78 362.66L269.09 362.22L273.36 361.62L277.57 360.84L281.72 359.91L285.8 358.81L289.82 357.56L293.77 356.16L297.65 354.61L301.46 352.91L305.18 351.07L308.82 349.09L312.37 346.98L315.83 344.74L319.2 342.37L322.47 339.87L325.64 337.25L328.71 334.52L331.67 331.67L334.52 328.71L337.25 325.64L339.87 322.47L342.37 319.2L344.74 315.83L346.98 312.37L349.09 308.82L351.07 305.18L352.91 301.46L354.61 297.65L356.16 293.77L357.56 289.82L358.81 285.8L359.91 281.72L360.84 277.57L361.62 273.36L362.22 269.09L362.66 264.78L362.93 260.41L363.02 256L362.93 251.59L362.66 247.22L362.22 242.91L361.62 238.64L360.84 234.43L359.91 230.28L358.81 226.2L357.56 222.18L356.16 218.23L354.61 214.35L352.91 210.54L351.07 206.82L349.09 203.18L346.98 199.63L344.74 196.17L342.37 192.8L339.87 189.53L337.25 186.36L334.52 183.29L331.67 180.33L328.71 177.48L325.64 174.75L322.47 172.13L319.2 169.63L315.83 167.26L312.37 165.02L308.82 162.91L305.18 160.93L301.46 159.09L297.65 157.39L293.77 155.84L289.82 154.44L285.8 153.19L281.72 152.09L277.57 151.16L273.36 150.38L269.09 149.78L264.78 149.34L260.41 149.07L256 148.98L251.59 149.07L247.22 149.34Z" />
    <path
       id="bwbzbberO"
       d="M294.28 256C294.28 277.13 277.13 294.28 256 294.28C234.87 294.28 217.72 277.13 217.72 256C217.72 234.87 234.87 217.72 256 217.72C277.13 217.72 294.28 234.87 294.28 256Z" />
  </defs>
  <sodipodi:namedview
     id="base"
     pagecolor="#ffffff"
     bordercolor="#666666"
     borderopacity="1.0"
     inkscape:pageopacity="0.0"
     inkscape:pageshadow="2"
     inkscape:zoom="0.44321199"
     inkscape:cx="672.88168"
     inkscape:cy="379.49947"
     inkscape:document-units="mm"
     inkscape:current-layer="layer1"
     showgrid="false"
     units="px"
     borderlayer="true"
     showguides="false"
     inkscape:window-width="1920"
     inkscape:window-height="1017"
     inkscape:window-x="-8"
     inkscape:window-y="-8"
     inkscape:window-maximized="1" />
  <metadata
     id="metadata5">
    <rdf:RDF>
      <cc:Work
         rdf:about="">
        <dc:format>image/svg+xml</dc:format>
        <dc:type
           rdf:resource="http://purl.org/dc/dcmitype/StillImage" />
        <dc:title></dc:title>
      </cc:Work>
    </rdf:RDF>
  </metadata>
  <g
     inkscape:label="Layer 1"
     inkscape:groupmode="layer"
     id="layer1"
     transform="translate(0,-164.70831)">
    <g
       id="g4547"
       transform="matrix(0.17031699,0,0,0.17031699,7.7475833,187.25299)"
       style="fill:#000000">
      <g
         id="g4545"
         style="fill:#000000">
        <g
           id="g4539"
           style="fill:#000000">
          <use
             id="use4533"
             xlink:href="#a3q3eguqXj"
             style="opacity:1;fill:#000000;fill-opacity:1"
             x="0"
             y="0"
             width="100%"
             height="100%" />
          <g
             id="g4537"
             style="fill:#000000">
            <use
               id="use4535"
               xlink:href="#a3q3eguqXj"
               style="opacity:1;fill:#000000;fill-opacity:0;stroke:#000000;stroke-width:1;stroke-opacity:0"
               x="0"
               y="0"
               width="100%"
               height="100%" />
          </g>
        </g>
        <g
           id="g4543"
           style="fill:#000000">
          <use
             id="use4541"
             xlink:href="#bwbzbberO"
             style="opacity:1;fill:#000000;fill-opacity:1"
             x="0"
             y="0"
             width="100%"
             height="100%" />
        </g>
      </g>
    </g>
    <text
       xml:space="preserve"
       style="font-style:normal;font-variant:normal;font-weight:bold;font-stretch:normal;font-size:35.57395554px;line-height:1.25;font-family:Roboto;-inkscape-font-specification:'Roboto Bold';letter-spacing:0px;word-spacing:0px;fill:#000000;fill-opacity:1;stroke:none;stroke-width:0.88934892"
       x="109.23691"
       y="244.22044"
       id="text4567"><tspan
         sodipodi:role="line"
         id="tspan4565"
         x="109.23691"
         y="244.22044"
         style="font-style:normal;font-variant:normal;font-weight:bold;font-stretch:normal;font-family:Roboto;-inkscape-font-specification:'Roboto Bold';stroke-width:0.88934892">STiBaRC Records</tspan></text>
  </g>
</svg>
